<svg viewBox="0 0 512 512"><path d="M 303.872 355.504 a 127.2624 127.2624 90 0 0 2.5547 25.344 H 50.432 V 330.16 c 0 -46.5899 64.5182 -77.2004 126.7099 -91.6692 C 185.6929 236.5038 227.8324 279.472 227.8324 279.472 V 230.0968 S 245.5048 228.784 253.184 228.784 s 25.3389 1.3103 25.3389 1.3103 V 279.472 s 42.1369 -42.9733 50.688 -40.9838 c 11.5797 2.6941 23.2379 5.9482 34.5464 9.76 A 126.2942 126.2942 90 0 0 303.872 355.504 Z m 130.6914 9.8537 C 402.6021 357.0525 392.3226 348.4634 392.3226 335.0894 c 0 -15.3483 14.2205 -26.0486 38.016 -26.0486 c 25.0627 0 34.3563 11.9674 35.2003 29.5688 h 31.1174 a 56.1268 56.1268 90 0 0 -45.1985 -53.6431 V 254.128 H 409.2194 v 30.4128 a 54.9433 54.9433 90 0 0 -49.2814 50.8299 c 0 32.524 26.8925 48.7162 66.1757 58.1493 c 35.2003 8.4472 42.2408 20.8378 42.2408 33.9331 c 0 9.7169 -6.8986 25.2021 -38.016 25.2021 c -29.0037 0 -40.4085 -12.9533 -41.957 -29.5688 H 357.4036 a 58.9907 58.9907 90 0 0 51.8133 53.927 V 507.568 H 451.4577 V 477.2946 c 27.4577 -5.2107 49.2814 -21.1192 49.2814 -49.9834 C 500.7391 387.3234 466.5247 373.668 434.5634 365.3603 Z M 151.808 102.064 a 101.376 101.376 90 1 1 101.376 101.376 A 101.376 101.376 90 0 1 151.808 102.064 Z M 189.824 102.064 A 63.36 63.36 90 1 0 253.184 38.704 A 63.36 63.36 90 0 0 189.824 102.064 Z"></path></svg>